<?xml version="1.0" encoding="UTF-8"?>
<!DOCTYPE svg
PUBLIC "-//W3C//DTD SVG 1.1//EN"
       "http://www.w3.org/Graphics/SVG/1.1/DTD/svg11.dtd">
<svg viewBox="75 -8 1104 562" width="1029px" height="570px" xmlns="http://www.w3.org/2000/svg" version="1.1">
   <line x1="685" y1="437" x2="675" y2="437" style="stroke:#0b0;stroke-width:1;"/>
   <line x1="676" y1="180" x2="686" y2="180" style="stroke:#0b0;stroke-width:1;"/>
   <line x1="675" y1="437" x2="676" y2="180" style="stroke:#0b0;stroke-width:1;"/>
   <line x1="677.5" y1="437" x2="681.03553390593" y2="440.53553390593" style="stroke:#0b0;stroke-width:2;"/>
   <line x1="677.5" y1="437" x2="681.03553390593" y2="433.46446609407" style="stroke:#0b0;stroke-width:2;"/>
   <line x1="681" y1="180" x2="677.46446609407" y2="183.53553390593" style="stroke:#0b0;stroke-width:2;"/>
   <line x1="681" y1="180" x2="677.46446609407" y2="176.46446609407" style="stroke:#0b0;stroke-width:2;"/>
   <line x1="910" y1="426" x2="900" y2="426" style="stroke:#333;stroke-width:1;"/>
   <line x1="873" y1="397" x2="863" y2="397" style="stroke:#333;stroke-width:1;"/>
   <line x1="900" y1="426" x2="873" y2="397" style="stroke:#333;stroke-width:1;"/>
   <line x1="902.5" y1="426" x2="906.03553390593" y2="429.53553390593" style="stroke:#333;stroke-width:2;"/>
   <line x1="902.5" y1="426" x2="906.03553390593" y2="422.46446609407" style="stroke:#333;stroke-width:2;"/>
   <line x1="868" y1="397" x2="871.53553390593" y2="400.53553390593" style="stroke:#333;stroke-width:2;"/>
   <line x1="868" y1="397" x2="871.53553390593" y2="393.46446609407" style="stroke:#333;stroke-width:2;"/>
   <line x1="910" y1="486" x2="900" y2="486" style="stroke:#b0b;stroke-width:1;"/>
   <line x1="901" y1="155" x2="911" y2="155" style="stroke:#b0b;stroke-width:1;"/>
   <line x1="900" y1="486" x2="901" y2="155" style="stroke:#b0b;stroke-width:1;"/>
   <line x1="902.5" y1="486" x2="906.03553390593" y2="489.53553390593" style="stroke:#b0b;stroke-width:2;"/>
   <line x1="902.5" y1="486" x2="906.03553390593" y2="482.46446609407" style="stroke:#b0b;stroke-width:2;"/>
   <line x1="906" y1="155" x2="902.46446609407" y2="158.53553390593" style="stroke:#b0b;stroke-width:2;"/>
   <line x1="906" y1="155" x2="902.46446609407" y2="151.46446609407" style="stroke:#b0b;stroke-width:2;"/>
   <rect width="178" height="20" x="90" y="243" style="fill:#007;stroke:black;"/>
   <text width="178" height="20" x="95" y="257" style="fill:#fff;" font-family="Arial" font-size="16px"> failed_jobs</text>
   <rect width="178" height="20" x="90" y="263" style="fill:#aea;stroke:black;"/>
   <text width="178" height="20" x="95" y="277" style="fill:black;" font-family="Arial" font-size="16px">id</text>
   <rect width="178" height="20" x="90" y="283" style="fill:none;stroke:black;"/>
   <text width="178" height="20" x="95" y="297" style="fill:black;" font-family="Arial" font-size="16px">uuid</text>
   <rect width="178" height="20" x="90" y="303" style="fill:none;stroke:black;"/>
   <text width="178" height="20" x="95" y="317" style="fill:black;" font-family="Arial" font-size="16px">connection</text>
   <rect width="178" height="20" x="90" y="323" style="fill:none;stroke:black;"/>
   <text width="178" height="20" x="95" y="337" style="fill:black;" font-family="Arial" font-size="16px">queue</text>
   <rect width="178" height="20" x="90" y="343" style="fill:none;stroke:black;"/>
   <text width="178" height="20" x="95" y="357" style="fill:black;" font-family="Arial" font-size="16px">payload</text>
   <rect width="178" height="20" x="90" y="363" style="fill:none;stroke:black;"/>
   <text width="178" height="20" x="95" y="377" style="fill:black;" font-family="Arial" font-size="16px">exception</text>
   <rect width="178" height="20" x="90" y="383" style="fill:none;stroke:black;"/>
   <text width="178" height="20" x="95" y="397" style="fill:black;" font-family="Arial" font-size="16px">failed_at</text>
   <rect width="178" height="20" x="686" y="150" style="fill:#007;stroke:black;"/>
   <text width="178" height="20" x="691" y="164" style="fill:#fff;" font-family="Arial" font-size="16px"> masyarakat</text>
   <rect width="178" height="20" x="686" y="170" style="fill:#aea;stroke:black;"/>
   <text width="178" height="20" x="691" y="184" style="fill:black;" font-family="Arial" font-size="16px">nik</text>
   <rect width="178" height="20" x="686" y="190" style="fill:none;stroke:black;"/>
   <text width="178" height="20" x="691" y="204" style="fill:black;" font-family="Arial" font-size="16px">nama</text>
   <rect width="178" height="20" x="686" y="210" style="fill:none;stroke:black;"/>
   <text width="178" height="20" x="691" y="224" style="fill:black;" font-family="Arial" font-size="16px">username</text>
   <rect width="178" height="20" x="686" y="230" style="fill:none;stroke:black;"/>
   <text width="178" height="20" x="691" y="244" style="fill:black;" font-family="Arial" font-size="16px">password</text>
   <rect width="178" height="20" x="686" y="250" style="fill:none;stroke:black;"/>
   <text width="178" height="20" x="691" y="264" style="fill:black;" font-family="Arial" font-size="16px">telp</text>
   <rect width="178" height="20" x="686" y="270" style="fill:none;stroke:black;"/>
   <text width="178" height="20" x="691" y="284" style="fill:black;" font-family="Arial" font-size="16px">created_at</text>
   <rect width="178" height="20" x="686" y="290" style="fill:none;stroke:black;"/>
   <text width="178" height="20" x="691" y="304" style="fill:black;" font-family="Arial" font-size="16px">updated_at</text>
   <rect width="178" height="20" x="301" y="121" style="fill:#007;stroke:black;"/>
   <text width="178" height="20" x="306" y="135" style="fill:#fff;" font-family="Arial" font-size="16px"> migrations</text>
   <rect width="178" height="20" x="301" y="141" style="fill:#aea;stroke:black;"/>
   <text width="178" height="20" x="306" y="155" style="fill:black;" font-family="Arial" font-size="16px">id</text>
   <rect width="178" height="20" x="301" y="161" style="fill:none;stroke:black;"/>
   <text width="178" height="20" x="306" y="175" style="fill:black;" font-family="Arial" font-size="16px">migration</text>
   <rect width="178" height="20" x="301" y="181" style="fill:none;stroke:black;"/>
   <text width="178" height="20" x="306" y="195" style="fill:black;" font-family="Arial" font-size="16px">batch</text>
   <rect width="178" height="20" x="295" y="7" style="fill:#007;stroke:black;"/>
   <text width="178" height="20" x="300" y="21" style="fill:#fff;" font-family="Arial" font-size="16px"> password_resets</text>
   <rect width="178" height="20" x="295" y="27" style="fill:none;stroke:black;"/>
   <text width="178" height="20" x="300" y="41" style="fill:black;" font-family="Arial" font-size="16px">email</text>
   <rect width="178" height="20" x="295" y="47" style="fill:none;stroke:black;"/>
   <text width="178" height="20" x="300" y="61" style="fill:black;" font-family="Arial" font-size="16px">token</text>
   <rect width="178" height="20" x="295" y="67" style="fill:none;stroke:black;"/>
   <text width="178" height="20" x="300" y="81" style="fill:black;" font-family="Arial" font-size="16px">created_at</text>
   <rect width="178" height="20" x="685" y="367" style="fill:#007;stroke:black;"/>
   <text width="178" height="20" x="690" y="381" style="fill:#fff;" font-family="Arial" font-size="16px"> pengaduan</text>
   <rect width="178" height="20" x="685" y="387" style="fill:#aea;stroke:black;"/>
   <text width="178" height="20" x="690" y="401" style="fill:black;" font-family="Arial" font-size="16px">id_pengaduan</text>
   <rect width="178" height="20" x="685" y="407" style="fill:none;stroke:black;"/>
   <text width="178" height="20" x="690" y="421" style="fill:black;" font-family="Arial" font-size="16px">tgl_pengaduan</text>
   <rect width="178" height="20" x="685" y="427" style="fill:none;stroke:black;"/>
   <text width="178" height="20" x="690" y="441" style="fill:black;" font-family="Arial" font-size="16px">nik</text>
   <rect width="178" height="20" x="685" y="447" style="fill:none;stroke:black;"/>
   <text width="178" height="20" x="690" y="461" style="fill:black;" font-family="Arial" font-size="16px">isi_laporan</text>
   <rect width="178" height="20" x="685" y="467" style="fill:none;stroke:black;"/>
   <text width="178" height="20" x="690" y="481" style="fill:black;" font-family="Arial" font-size="16px">foto</text>
   <rect width="178" height="20" x="685" y="487" style="fill:none;stroke:black;"/>
   <text width="178" height="20" x="690" y="501" style="fill:black;" font-family="Arial" font-size="16px">status</text>
   <rect width="178" height="20" x="685" y="507" style="fill:none;stroke:black;"/>
   <text width="178" height="20" x="690" y="521" style="fill:black;" font-family="Arial" font-size="16px">created_at</text>
   <rect width="178" height="20" x="685" y="527" style="fill:none;stroke:black;"/>
   <text width="178" height="20" x="690" y="541" style="fill:black;" font-family="Arial" font-size="16px">updated_at</text>
   <rect width="178" height="20" x="274" y="242" style="fill:#007;stroke:black;"/>
   <text width="178" height="20" x="279" y="256" style="fill:#fff;" font-family="Arial" font-size="16px"> personal_access_tokens</text>
   <rect width="178" height="20" x="274" y="262" style="fill:#aea;stroke:black;"/>
   <text width="178" height="20" x="279" y="276" style="fill:black;" font-family="Arial" font-size="16px">id</text>
   <rect width="178" height="20" x="274" y="282" style="fill:none;stroke:black;"/>
   <text width="178" height="20" x="279" y="296" style="fill:black;" font-family="Arial" font-size="16px">tokenable_type</text>
   <rect width="178" height="20" x="274" y="302" style="fill:none;stroke:black;"/>
   <text width="178" height="20" x="279" y="316" style="fill:black;" font-family="Arial" font-size="16px">tokenable_id</text>
   <rect width="178" height="20" x="274" y="322" style="fill:none;stroke:black;"/>
   <text width="178" height="20" x="279" y="336" style="fill:black;" font-family="Arial" font-size="16px">name</text>
   <rect width="178" height="20" x="274" y="342" style="fill:none;stroke:black;"/>
   <text width="178" height="20" x="279" y="356" style="fill:black;" font-family="Arial" font-size="16px">token</text>
   <rect width="178" height="20" x="274" y="362" style="fill:none;stroke:black;"/>
   <text width="178" height="20" x="279" y="376" style="fill:black;" font-family="Arial" font-size="16px">abilities</text>
   <rect width="178" height="20" x="274" y="382" style="fill:none;stroke:black;"/>
   <text width="178" height="20" x="279" y="396" style="fill:black;" font-family="Arial" font-size="16px">last_used_at</text>
   <rect width="178" height="20" x="274" y="402" style="fill:none;stroke:black;"/>
   <text width="178" height="20" x="279" y="416" style="fill:black;" font-family="Arial" font-size="16px">created_at</text>
   <rect width="178" height="20" x="274" y="422" style="fill:none;stroke:black;"/>
   <text width="178" height="20" x="279" y="436" style="fill:black;" font-family="Arial" font-size="16px">updated_at</text>
   <rect width="178" height="20" x="911" y="125" style="fill:#007;stroke:black;"/>
   <text width="178" height="20" x="916" y="139" style="fill:#fff;" font-family="Arial" font-size="16px"> petugas</text>
   <rect width="178" height="20" x="911" y="145" style="fill:#aea;stroke:black;"/>
   <text width="178" height="20" x="916" y="159" style="fill:black;" font-family="Arial" font-size="16px">id_petugas</text>
   <rect width="178" height="20" x="911" y="165" style="fill:none;stroke:black;"/>
   <text width="178" height="20" x="916" y="179" style="fill:black;" font-family="Arial" font-size="16px">nama_petugas</text>
   <rect width="178" height="20" x="911" y="185" style="fill:none;stroke:black;"/>
   <text width="178" height="20" x="916" y="199" style="fill:black;" font-family="Arial" font-size="16px">username</text>
   <rect width="178" height="20" x="911" y="205" style="fill:none;stroke:black;"/>
   <text width="178" height="20" x="916" y="219" style="fill:black;" font-family="Arial" font-size="16px">password</text>
   <rect width="178" height="20" x="911" y="225" style="fill:none;stroke:black;"/>
   <text width="178" height="20" x="916" y="239" style="fill:black;" font-family="Arial" font-size="16px">telp</text>
   <rect width="178" height="20" x="911" y="245" style="fill:none;stroke:black;"/>
   <text width="178" height="20" x="916" y="259" style="fill:black;" font-family="Arial" font-size="16px">level</text>
   <rect width="178" height="20" x="911" y="265" style="fill:none;stroke:black;"/>
   <text width="178" height="20" x="916" y="279" style="fill:black;" font-family="Arial" font-size="16px">created_at</text>
   <rect width="178" height="20" x="911" y="285" style="fill:none;stroke:black;"/>
   <text width="178" height="20" x="916" y="299" style="fill:black;" font-family="Arial" font-size="16px">updated_at</text>
   <rect width="178" height="20" x="910" y="376" style="fill:#007;stroke:black;"/>
   <text width="178" height="20" x="915" y="390" style="fill:#fff;" font-family="Arial" font-size="16px"> tanggapan</text>
   <rect width="178" height="20" x="910" y="396" style="fill:#aea;stroke:black;"/>
   <text width="178" height="20" x="915" y="410" style="fill:black;" font-family="Arial" font-size="16px">id_tanggapan</text>
   <rect width="178" height="20" x="910" y="416" style="fill:none;stroke:black;"/>
   <text width="178" height="20" x="915" y="430" style="fill:black;" font-family="Arial" font-size="16px">id_pengaduan</text>
   <rect width="178" height="20" x="910" y="436" style="fill:none;stroke:black;"/>
   <text width="178" height="20" x="915" y="450" style="fill:black;" font-family="Arial" font-size="16px">tgl_tanggapan</text>
   <rect width="178" height="20" x="910" y="456" style="fill:none;stroke:black;"/>
   <text width="178" height="20" x="915" y="470" style="fill:black;" font-family="Arial" font-size="16px">tanggapan</text>
   <rect width="178" height="20" x="910" y="476" style="fill:none;stroke:black;"/>
   <text width="178" height="20" x="915" y="490" style="fill:black;" font-family="Arial" font-size="16px">id_petugas</text>
   <rect width="178" height="20" x="910" y="496" style="fill:none;stroke:black;"/>
   <text width="178" height="20" x="915" y="510" style="fill:black;" font-family="Arial" font-size="16px">created_at</text>
   <rect width="178" height="20" x="910" y="516" style="fill:none;stroke:black;"/>
   <text width="178" height="20" x="915" y="530" style="fill:black;" font-family="Arial" font-size="16px">updated_at</text>
   <rect width="178" height="20" x="91" y="9" style="fill:#007;stroke:black;"/>
   <text width="178" height="20" x="96" y="23" style="fill:#fff;" font-family="Arial" font-size="16px"> users</text>
   <rect width="178" height="20" x="91" y="29" style="fill:#aea;stroke:black;"/>
   <text width="178" height="20" x="96" y="43" style="fill:black;" font-family="Arial" font-size="16px">id</text>
   <rect width="178" height="20" x="91" y="49" style="fill:none;stroke:black;"/>
   <text width="178" height="20" x="96" y="63" style="fill:black;" font-family="Arial" font-size="16px">name</text>
   <rect width="178" height="20" x="91" y="69" style="fill:none;stroke:black;"/>
   <text width="178" height="20" x="96" y="83" style="fill:black;" font-family="Arial" font-size="16px">email</text>
   <rect width="178" height="20" x="91" y="89" style="fill:none;stroke:black;"/>
   <text width="178" height="20" x="96" y="103" style="fill:black;" font-family="Arial" font-size="16px">email_verified_at</text>
   <rect width="178" height="20" x="91" y="109" style="fill:none;stroke:black;"/>
   <text width="178" height="20" x="96" y="123" style="fill:black;" font-family="Arial" font-size="16px">password</text>
   <rect width="178" height="20" x="91" y="129" style="fill:none;stroke:black;"/>
   <text width="178" height="20" x="96" y="143" style="fill:black;" font-family="Arial" font-size="16px">remember_token</text>
   <rect width="178" height="20" x="91" y="149" style="fill:none;stroke:black;"/>
   <text width="178" height="20" x="96" y="163" style="fill:black;" font-family="Arial" font-size="16px">created_at</text>
   <rect width="178" height="20" x="91" y="169" style="fill:none;stroke:black;"/>
   <text width="178" height="20" x="96" y="183" style="fill:black;" font-family="Arial" font-size="16px">updated_at</text>
</svg>
